<svg width="135" height="50" viewBox="0 0 135 50" fill="none" xmlns="http://www.w3.org/2000/svg">
<rect width="135" height="50" fill="white"/>
<path d="M58.9844 20.1746L61.2285 20.3093C61.123 21.2898 60.7598 22.0417 60.1387 22.5652C59.5215 23.0886 58.7617 23.3503 57.8594 23.3503C56.7734 23.3503 55.8965 22.991 55.2285 22.2722C54.5605 21.5535 54.2266 20.5613 54.2266 19.2957C54.2266 18.0417 54.543 17.03 55.1758 16.2605C55.8086 15.491 56.6914 15.1062 57.8242 15.1062C58.8828 15.1062 59.6953 15.3992 60.2617 15.9851C60.832 16.571 61.1543 17.3484 61.2285 18.3171L58.9375 18.4402C58.9375 17.905 58.834 17.5183 58.627 17.28C58.4238 17.0417 58.1836 16.9226 57.9062 16.9226C57.1328 16.9226 56.7461 17.7 56.7461 19.2546C56.7461 20.1257 56.8457 20.7175 57.0449 21.03C57.248 21.3425 57.5312 21.4988 57.8945 21.4988C58.543 21.4988 58.9062 21.0574 58.9844 20.1746ZM64.9609 23.3503C63.9727 23.3503 63.1875 23.0437 62.6055 22.4304C62.0234 21.8132 61.7324 21.0906 61.7324 20.2625C61.7324 19.3718 62.0352 18.6296 62.6406 18.0359C63.25 17.4421 64.041 17.1453 65.0137 17.1453C65.9941 17.1453 66.7812 17.4382 67.375 18.0242C67.9727 18.6101 68.2715 19.3445 68.2715 20.2273C68.2715 21.1179 67.9688 21.8621 67.3633 22.4597C66.7617 23.0535 65.9609 23.3503 64.9609 23.3503ZM64.9961 21.9324C65.3594 21.9324 65.5801 21.7449 65.6582 21.3699C65.7402 20.991 65.7812 20.5964 65.7812 20.1863C65.7812 19.6277 65.7246 19.2253 65.6113 18.9792C65.498 18.7332 65.2949 18.6101 65.002 18.6101C64.7324 18.6101 64.5352 18.7371 64.4102 18.991C64.2852 19.2449 64.2227 19.6628 64.2227 20.2449C64.2227 20.9285 64.2871 21.3816 64.416 21.6042C64.5449 21.823 64.7383 21.9324 64.9961 21.9324ZM71.957 25.2253V23.3503C71.1875 23.2917 70.5801 23.1101 70.1348 22.8054C69.6895 22.4968 69.373 22.1335 69.1855 21.7156C69.002 21.2976 68.9102 20.8308 68.9102 20.3152C68.9102 19.4285 69.1836 18.7136 69.7305 18.1707C70.2773 17.6238 71.0195 17.3015 71.957 17.2039V15.2292H74.1367V17.2039C75.0742 17.3015 75.8164 17.6238 76.3633 18.1707C76.9102 18.7175 77.1836 19.4343 77.1836 20.321C77.1836 21.2039 76.9199 21.9128 76.3926 22.448C75.8652 22.9832 75.1133 23.2839 74.1367 23.3503V25.2253H71.957ZM72.0625 18.3347C71.375 18.6785 71.0312 19.3132 71.0312 20.239C71.0312 21.1648 71.375 21.7976 72.0625 22.1375V18.3347ZM74.0312 22.1375C74.7148 21.7976 75.0566 21.1648 75.0566 20.239C75.0566 19.821 74.9668 19.4363 74.7871 19.0847C74.6074 18.7332 74.3555 18.4832 74.0312 18.3347V22.1375ZM79.0293 23.2273V18.7976H77.4062V17.3093H82.9141V18.7976H81.3672V23.2273H79.0293Z" fill="black"/>
<path d="M87.8242 23.2273L87.373 21.6511H85.2285L84.748 23.2273H82.7559L85.2285 15.2292H87.8242L90.3262 23.2273H87.8242ZM85.6445 19.905H86.9453L86.2949 17.5847L85.6445 19.905ZM93.3203 25.1082H90.9824V17.2683H93.1328V18.1121C93.4336 17.4675 93.9941 17.1453 94.8145 17.1453C95.5254 17.1453 96.082 17.4226 96.4844 17.9773C96.8867 18.5281 97.0879 19.28 97.0879 20.2332C97.0879 21.1863 96.8809 21.9441 96.4668 22.5066C96.0566 23.0691 95.5137 23.3503 94.8379 23.3503C94.1738 23.3503 93.668 23.0964 93.3203 22.5886V25.1082ZM93.3203 21.0476C93.3203 21.3132 93.3809 21.5203 93.502 21.6687C93.623 21.8132 93.7734 21.8855 93.9531 21.8855C94.2344 21.8855 94.4277 21.7566 94.5332 21.4988C94.6387 21.2371 94.6914 20.8367 94.6914 20.2976C94.6914 19.6765 94.6309 19.241 94.5098 18.991C94.3887 18.7371 94.207 18.6101 93.9648 18.6101C93.8203 18.6101 93.6758 18.6667 93.5312 18.78C93.3906 18.8933 93.3203 19.0789 93.3203 19.3367V21.0476ZM98.9863 23.2273V18.7976H97.3633V17.3093H102.871V18.7976H101.324V23.2273H98.9863Z" fill="#E94E1B"/>
<path d="M56.4487 34.0632V34.6257H54.8589V29.2937H56.4487V31.4343C56.4487 31.7182 56.4331 32.0567 56.4019 32.45C56.5972 32.0229 56.7912 31.644 56.9839 31.3132L57.8276 29.864V29.2937H59.4175V34.6257H57.8276V32.5046C57.8276 32.2 57.842 31.8627 57.8706 31.4929C57.7144 31.8523 57.5203 32.2299 57.2886 32.6257L56.4487 34.0632ZM60.2964 34.6257V30.6804H61.855V32.0906H62.5894V30.6804H64.1479V34.6257H62.5894V33.0164H61.855V34.6257H60.2964ZM65.5073 34.6257V31.6726H64.4253V30.6804H68.0972V31.6726H67.0659V34.6257H65.5073ZM71.0464 33.2L72.4995 33.2976C72.4136 33.6882 72.1935 34.0216 71.8394 34.2976C71.4878 34.571 71.0112 34.7078 70.4097 34.7078C69.7404 34.7078 69.2065 34.5151 68.8081 34.1296C68.4097 33.7416 68.2104 33.2611 68.2104 32.6882C68.2104 32.0945 68.4071 31.5932 68.8003 31.1843C69.1935 30.7755 69.7183 30.571 70.3745 30.571C71.0099 30.571 71.5229 30.7638 71.9136 31.1492C72.3068 31.5346 72.5034 32.0593 72.5034 32.7234C72.5034 32.7781 72.5021 32.8536 72.4995 32.95H69.8394C69.8446 33.2 69.8888 33.3861 69.9722 33.5085C70.0555 33.6283 70.2144 33.6882 70.4487 33.6882C70.7873 33.6882 70.9865 33.5255 71.0464 33.2ZM70.9448 32.1687C70.9422 31.9005 70.8875 31.7208 70.7808 31.6296C70.6766 31.5359 70.5464 31.489 70.3901 31.489C70.0203 31.489 69.8354 31.7156 69.8354 32.1687H70.9448ZM74.6753 35.8796H73.1167V30.6531H74.5503V31.2156C74.7508 30.7859 75.1245 30.571 75.6714 30.571C76.1453 30.571 76.5164 30.7559 76.7847 31.1257C77.0529 31.4929 77.187 31.9942 77.187 32.6296C77.187 33.2651 77.049 33.7703 76.7729 34.1453C76.4995 34.5203 76.1375 34.7078 75.687 34.7078C75.2443 34.7078 74.9071 34.5385 74.6753 34.2V35.8796ZM74.6753 33.1726C74.6753 33.3497 74.7157 33.4877 74.7964 33.5867C74.8771 33.683 74.9774 33.7312 75.0972 33.7312C75.2847 33.7312 75.4136 33.6453 75.4839 33.4734C75.5542 33.2989 75.5894 33.032 75.5894 32.6726C75.5894 32.2585 75.549 31.9682 75.4683 31.8015C75.3875 31.6322 75.2664 31.5476 75.105 31.5476C75.0086 31.5476 74.9123 31.5854 74.8159 31.6609C74.7222 31.7364 74.6753 31.8601 74.6753 32.032V33.1726ZM77.812 34.6257V30.6804H79.3706V32.0906H80.105V30.6804H81.6636V34.6257H80.105V33.0164H79.3706V34.6257H77.812ZM85.1089 33.2L86.562 33.2976C86.4761 33.6882 86.256 34.0216 85.9019 34.2976C85.5503 34.571 85.0737 34.7078 84.4722 34.7078C83.8029 34.7078 83.269 34.5151 82.8706 34.1296C82.4722 33.7416 82.2729 33.2611 82.2729 32.6882C82.2729 32.0945 82.4696 31.5932 82.8628 31.1843C83.256 30.7755 83.7808 30.571 84.437 30.571C85.0724 30.571 85.5854 30.7638 85.9761 31.1492C86.3693 31.5346 86.5659 32.0593 86.5659 32.7234C86.5659 32.7781 86.5646 32.8536 86.562 32.95H83.9019C83.9071 33.2 83.9513 33.3861 84.0347 33.5085C84.118 33.6283 84.2769 33.6882 84.5112 33.6882C84.8498 33.6882 85.049 33.5255 85.1089 33.2ZM85.0073 32.1687C85.0047 31.9005 84.95 31.7208 84.8433 31.6296C84.7391 31.5359 84.6089 31.489 84.4526 31.489C84.0828 31.489 83.8979 31.7156 83.8979 32.1687H85.0073ZM87.7183 34.6257V31.6726H86.6362V30.6804H90.3081V31.6726H89.2769V34.6257H87.7183ZM94.2651 31.9968V33.2234H92.2847V31.9968H94.2651ZM99.7925 32.0203L101.128 34.6257H99.519L98.7729 33.0359L98.3394 33.532V34.6257H96.7886V30.6804H98.3394V32.1648C98.4279 32.032 98.5203 31.9109 98.6167 31.8015L99.6128 30.6804H100.992L99.7925 32.0203ZM103.246 34.7078C102.587 34.7078 102.063 34.5033 101.675 34.0945C101.287 33.683 101.093 33.2013 101.093 32.6492C101.093 32.0554 101.295 31.5606 101.699 31.1648C102.105 30.769 102.632 30.571 103.281 30.571C103.934 30.571 104.459 30.7664 104.855 31.157C105.253 31.5476 105.453 32.0372 105.453 32.6257C105.453 33.2195 105.251 33.7156 104.847 34.114C104.446 34.5098 103.912 34.7078 103.246 34.7078ZM103.269 33.7625C103.511 33.7625 103.658 33.6375 103.71 33.3875C103.765 33.1348 103.792 32.8718 103.792 32.5984C103.792 32.226 103.755 31.9578 103.679 31.7937C103.604 31.6296 103.468 31.5476 103.273 31.5476C103.093 31.5476 102.962 31.6322 102.878 31.8015C102.795 31.9708 102.753 32.2494 102.753 32.6375C102.753 33.0932 102.796 33.3953 102.882 33.5437C102.968 33.6895 103.097 33.7625 103.269 33.7625ZM106.062 34.6257V30.6804H108.246L108.878 33.7156L109.511 30.6804H111.562V34.6257H110.152V31.6023H110.097L109.453 34.6257H107.933L107.289 31.6023H107.234V34.6257H106.062ZM112.39 34.6257V30.6804H116.125V34.6257H114.566V31.5359H113.949V34.6257H112.39ZM120.949 34.6257H119.464C119.428 34.4565 119.41 34.2716 119.41 34.071C119.128 34.4955 118.703 34.7078 118.132 34.7078C117.664 34.7078 117.312 34.588 117.078 34.3484C116.846 34.1088 116.73 33.8341 116.73 33.5242C116.73 33.1049 116.92 32.7664 117.3 32.5085C117.683 32.2481 118.36 32.0919 119.332 32.0398V31.95C119.332 31.7755 119.291 31.6596 119.21 31.6023C119.132 31.545 119.016 31.5164 118.863 31.5164C118.503 31.5164 118.303 31.6609 118.261 31.95L116.839 31.8171C117.042 30.9864 117.734 30.571 118.914 30.571C119.234 30.571 119.528 30.6036 119.796 30.6687C120.065 30.7312 120.277 30.8302 120.433 30.9656C120.589 31.101 120.694 31.2442 120.746 31.3953C120.8 31.5463 120.828 31.8367 120.828 32.2664V33.8523C120.828 34.1544 120.868 34.4122 120.949 34.6257ZM119.332 32.7664C118.667 32.8367 118.335 33.0489 118.335 33.4031C118.335 33.6427 118.467 33.7625 118.73 33.7625C118.897 33.7625 119.039 33.713 119.156 33.614C119.273 33.5151 119.332 33.2963 119.332 32.9578V32.7664ZM121.64 34.6257V30.6804H123.199V32.0906H123.933V30.6804H125.492V34.6257H123.933V33.0164H123.199V34.6257H121.64ZM127.871 34.2507V34.6257H126.312V30.6804H127.871V31.9421C127.871 32.1765 127.856 32.4968 127.828 32.9031C127.992 32.5411 128.131 32.252 128.246 32.0359L128.71 31.157V30.6804H130.269V34.6257H128.71V33.4695C128.71 33.1804 128.725 32.8601 128.753 32.5085C128.589 32.8731 128.45 33.1622 128.335 33.3757L127.871 34.2507ZM133.156 34.6257V33.1453H132.527L131.949 34.6257H130.738L131.539 32.8562C131.122 32.6947 130.914 32.3783 130.914 31.907C130.914 31.5528 131.033 31.2598 131.273 31.0281C131.513 30.7963 131.85 30.6804 132.285 30.6804H134.714V34.6257H133.156ZM133.21 32.2703V31.5437H132.664C132.442 31.5437 132.332 31.67 132.332 31.9226C132.332 32.1544 132.442 32.2703 132.664 32.2703H133.21Z" fill="black"/>
<path d="M49.33 24.67C49.33 28.6 48.41 32.31 46.77 35.61C42.75 43.74 34.36 49.34 24.66 49.34C15.54 49.34 7.58001 44.39 3.32001 37.03C1.21001 33.4 0 29.17 0 24.67C0 11.05 11.04 0 24.66 0C38.29 0 49.33 11.05 49.33 24.67Z" fill="#E94E1B"/>
<path d="M46.7703 35.6099C42.7503 43.7399 34.3603 49.3399 24.6603 49.3399C15.5403 49.3399 7.58031 44.3899 3.32031 37.0299C6.40031 27.7899 15.0803 21.1299 25.3103 21.1299C35.0103 21.1299 43.3103 27.1099 46.7703 35.6099Z" fill="#DB4A19"/>
<path d="M29.3101 16.6399H19.8901V48.5599H29.3101V16.6399Z" fill="white" stroke="black" stroke-width="0.5" stroke-miterlimit="10"/>
<path d="M22.1303 16.8899H21.3403V48.3799H22.1303V16.8899Z" fill="black"/>
<path d="M24.9702 16.8499H24.1802V48.3599H24.9702V16.8499Z" fill="black"/>
<path d="M27.6303 16.6799H26.8403V48.3299H27.6303V16.6799Z" fill="black"/>
<path d="M22.4601 14.6799L21.8201 15.3199L21.6701 15.4699L20.7701 16.3799L20.2001 16.9499L19.6401 16.3899L19.6501 16.3799L20.7001 15.3199L21.2701 14.7499L21.3401 14.6799H22.4601Z" fill="black"/>
<path d="M31 14.6799V15.4699H21.27V14.7499L21.34 14.6799H31Z" fill="black"/>
<path d="M31.0101 14.8899V15.4699H31.0001V15.5399L30.2101 16.3199L29.4501 17.0799L28.8901 16.5199L29.0301 16.3799L29.9501 15.4699L30.7401 14.6799H30.8001L30.8801 14.7599L31.0101 14.8899Z" fill="black"/>
<path d="M31.0004 14.76H30.2104V47.39H31.0004V14.76Z" fill="black"/>
<path d="M31 47.3398V46.5198H30.7L30.63 46.5898L30.21 47.0098L29 48.2298L29.56 48.7898L30.95 47.3898L31 47.3398Z" fill="black"/>
<path d="M29.3276 22.2463V21.4563H19.7976V22.2463H29.3276Z" fill="black"/>
<path d="M29.4741 28.0251V27.2351H19.9441V28.0251H29.4741Z" fill="black"/>
<path d="M29.3887 33.8061V33.0161H19.8587V33.8061H29.3887Z" fill="black"/>
<path d="M29.3354 39.8862V39.0962H20.0854V39.8862H29.3354Z" fill="black"/>
<path d="M29.4731 44.664V43.874H19.9431V44.664H29.4731Z" fill="black"/>
<path d="M31.0104 15.3198V15.4698H31.0004V15.5398L30.2104 16.3198L30.1504 16.3798H19.6504L20.7004 15.3198H31.0104Z" fill="black"/>
<path d="M30.978 20.6968L30.4194 20.1382L28.6871 21.8706L29.2457 22.4292L30.978 20.6968Z" fill="black"/>
<path d="M31.0191 26.4658L30.4604 25.9072L28.728 27.6396L29.2867 28.1982L31.0191 26.4658Z" fill="black"/>
<path d="M30.9795 32.2473L30.4209 31.6887L28.6885 33.4211L29.2471 33.9797L30.9795 32.2473Z" fill="black"/>
<path d="M30.9863 38.3855L30.4277 37.8269L28.6953 39.5593L29.2539 40.1179L30.9863 38.3855Z" fill="black"/>
<path d="M30.9644 43.0613L30.4058 42.5027L28.6734 44.2351L29.232 44.7937L30.9644 43.0613Z" fill="black"/>
</svg>
